<svg xmlns="http://www.w3.org/2000/svg" version="1.1" xmlns:xlink="http://www.w3.org/1999/xlink"
    xmlns:svgjs="http://svgjs.dev/svgjs" width="1440" height="300" preserveAspectRatio="none" viewBox="0 0 1440 300">
    <g mask="url(&quot;#SvgjsMask1178&quot;)" fill="none">
        <g mask="url(&quot;#SvgjsMask1179&quot;)">
            <path d="M1460.5 195.5L1437.5 195.5L1414.5 195.5L1391.5 195.5" stroke="rgba(87, 87, 87, 1)"
                stroke-width="2"></path>
            <path d="M1385.75 195.5 a5.75 5.75 0 1 0 11.5 0 a5.75 5.75 0 1 0 -11.5 0z" fill="rgba(87, 87, 87, 1)">
            </path>
            <path
                d="M1276.5 218.5L1253.5 241.5M1299.5 218.5L1276.5 241.5M1322.5 218.5L1299.5 241.5M1368.5 218.5L1345.5 195.5M1460.5 218.5L1437.5 218.5L1414.5 218.5L1391.5 218.5L1368.5 218.5L1345.5 218.5L1322.5 218.5L1299.5 218.5L1276.5 218.5L1253.5 218.5L1230.5 218.5L1207.5 218.5L1184.5 218.5L1161.5 218.5L1138.5 218.5L1115.5 218.5L1092.5 218.5"
                stroke="rgba(59, 59, 59, 1)" stroke-width="2"></path>
            <path
                d="M1086.75 218.5 a5.75 5.75 0 1 0 11.5 0 a5.75 5.75 0 1 0 -11.5 0zM1247.75 241.5 a5.75 5.75 0 1 0 11.5 0 a5.75 5.75 0 1 0 -11.5 0zM1270.75 241.5 a5.75 5.75 0 1 0 11.5 0 a5.75 5.75 0 1 0 -11.5 0zM1293.75 241.5 a5.75 5.75 0 1 0 11.5 0 a5.75 5.75 0 1 0 -11.5 0zM1339.75 195.5 a5.75 5.75 0 1 0 11.5 0 a5.75 5.75 0 1 0 -11.5 0z"
                fill="rgba(59, 59, 59, 1)"></path>
            <path
                d="M1161.5 195.5L1138.5 172.5L1115.5 172.5L1092.5 172.5M977.5 195.5L954.5 172.5L931.5 172.5L908.5 149.5L885.5 126.5L862.5 126.5L839.5 126.5M1184.5 195.5L1161.5 172.5L1138.5 149.5L1115.5 149.5M1207.5 195.5L1184.5 172.5M1299.5 195.5L1276.5 172.5L1253.5 172.5L1230.5 172.5M1322.5 195.5L1299.5 172.5M1460.5 172.5L1437.5 172.5L1414.5 172.5L1391.5 172.5L1368.5 172.5L1345.5 172.5L1322.5 195.5L1299.5 195.5L1276.5 195.5L1253.5 195.5L1230.5 195.5L1207.5 195.5L1184.5 195.5L1161.5 195.5L1138.5 195.5L1115.5 195.5L1092.5 195.5L1069.5 195.5L1046.5 195.5L1023.5 195.5L1000.5 195.5L977.5 195.5L954.5 195.5L931.5 195.5L908.5 172.5L885.5 149.5"
                stroke="rgba(59, 59, 59, 1)" stroke-width="2"></path>
            <path
                d="M879.75 149.5 a5.75 5.75 0 1 0 11.5 0 a5.75 5.75 0 1 0 -11.5 0zM1086.75 172.5 a5.75 5.75 0 1 0 11.5 0 a5.75 5.75 0 1 0 -11.5 0zM833.75 126.5 a5.75 5.75 0 1 0 11.5 0 a5.75 5.75 0 1 0 -11.5 0zM1109.75 149.5 a5.75 5.75 0 1 0 11.5 0 a5.75 5.75 0 1 0 -11.5 0zM1178.75 172.5 a5.75 5.75 0 1 0 11.5 0 a5.75 5.75 0 1 0 -11.5 0zM1224.75 172.5 a5.75 5.75 0 1 0 11.5 0 a5.75 5.75 0 1 0 -11.5 0zM1293.75 172.5 a5.75 5.75 0 1 0 11.5 0 a5.75 5.75 0 1 0 -11.5 0z"
                fill="rgba(59, 59, 59, 1)"></path>
            <path
                d="M931.5 218.5L908.5 218.5L885.5 218.5L862.5 218.5L839.5 218.5L816.5 218.5L793.5 218.5L770.5 218.5M1023.5 218.5L1000.5 241.5M1345.5 241.5L1322.5 241.5M862.5 195.5L839.5 172.5L816.5 172.5M1046.5 241.5L1023.5 241.5M1207.5 241.5L1184.5 264.5M1069.5 241.5L1046.5 218.5M1460.5 241.5L1437.5 241.5L1414.5 241.5L1391.5 241.5L1368.5 241.5L1345.5 241.5L1322.5 264.5L1299.5 264.5L1276.5 264.5L1253.5 264.5L1230.5 241.5L1207.5 241.5L1184.5 241.5L1161.5 241.5L1138.5 241.5L1115.5 241.5L1092.5 241.5L1069.5 241.5L1046.5 241.5L1023.5 218.5L1000.5 218.5L977.5 218.5L954.5 218.5L931.5 218.5L908.5 195.5L885.5 195.5L862.5 195.5L839.5 195.5L816.5 195.5L793.5 195.5"
                stroke="rgba(59, 59, 59, 1)" stroke-width="2"></path>
            <path
                d="M787.75 195.5 a5.75 5.75 0 1 0 11.5 0 a5.75 5.75 0 1 0 -11.5 0zM764.75 218.5 a5.75 5.75 0 1 0 11.5 0 a5.75 5.75 0 1 0 -11.5 0zM994.75 241.5 a5.75 5.75 0 1 0 11.5 0 a5.75 5.75 0 1 0 -11.5 0zM1316.75 241.5 a5.75 5.75 0 1 0 11.5 0 a5.75 5.75 0 1 0 -11.5 0zM810.75 172.5 a5.75 5.75 0 1 0 11.5 0 a5.75 5.75 0 1 0 -11.5 0zM1017.75 241.5 a5.75 5.75 0 1 0 11.5 0 a5.75 5.75 0 1 0 -11.5 0zM1178.75 264.5 a5.75 5.75 0 1 0 11.5 0 a5.75 5.75 0 1 0 -11.5 0zM1040.75 218.5 a5.75 5.75 0 1 0 11.5 0 a5.75 5.75 0 1 0 -11.5 0z"
                fill="rgba(59, 59, 59, 1)"></path>
            <path
                d="M1368.5 149.5L1345.5 126.5L1322.5 126.5L1299.5 103.5M1322.5 149.5L1299.5 149.5L1276.5 149.5L1253.5 149.5M1460.5 149.5L1437.5 149.5L1414.5 149.5L1391.5 149.5L1368.5 149.5L1345.5 149.5L1322.5 149.5L1299.5 126.5L1276.5 126.5"
                stroke="rgba(59, 59, 59, 1)" stroke-width="2"></path>
            <path
                d="M1270.75 126.5 a5.75 5.75 0 1 0 11.5 0 a5.75 5.75 0 1 0 -11.5 0zM1293.75 103.5 a5.75 5.75 0 1 0 11.5 0 a5.75 5.75 0 1 0 -11.5 0zM1247.75 149.5 a5.75 5.75 0 1 0 11.5 0 a5.75 5.75 0 1 0 -11.5 0z"
                fill="rgba(59, 59, 59, 1)"></path>
            <path
                d="M1230.5 287.5L1207.5 264.5M1276.5 287.5L1253.5 310.5M1161.5 264.5L1138.5 287.5L1115.5 287.5L1092.5 287.5L1069.5 310.5L1046.5 310.5M1299.5 287.5L1276.5 310.5L1253.5 333.5M931.5 241.5L908.5 264.5L885.5 264.5M1000.5 264.5L977.5 264.5L954.5 264.5L931.5 264.5M1460.5 264.5L1437.5 264.5L1414.5 264.5L1391.5 264.5L1368.5 264.5L1345.5 264.5L1322.5 287.5L1299.5 287.5L1276.5 287.5L1253.5 287.5L1230.5 287.5L1207.5 287.5L1184.5 287.5L1161.5 264.5L1138.5 264.5L1115.5 264.5L1092.5 264.5L1069.5 264.5L1046.5 264.5L1023.5 264.5L1000.5 264.5L977.5 241.5L954.5 241.5L931.5 241.5L908.5 241.5"
                stroke="rgba(87, 87, 87, 1)" stroke-width="2"></path>
            <path
                d="M902.75 241.5 a5.75 5.75 0 1 0 11.5 0 a5.75 5.75 0 1 0 -11.5 0zM1201.75 264.5 a5.75 5.75 0 1 0 11.5 0 a5.75 5.75 0 1 0 -11.5 0zM1247.75 310.5 a5.75 5.75 0 1 0 11.5 0 a5.75 5.75 0 1 0 -11.5 0zM1040.75 310.5 a5.75 5.75 0 1 0 11.5 0 a5.75 5.75 0 1 0 -11.5 0zM1247.75 333.5 a5.75 5.75 0 1 0 11.5 0 a5.75 5.75 0 1 0 -11.5 0zM879.75 264.5 a5.75 5.75 0 1 0 11.5 0 a5.75 5.75 0 1 0 -11.5 0zM925.75 264.5 a5.75 5.75 0 1 0 11.5 0 a5.75 5.75 0 1 0 -11.5 0z"
                fill="rgba(87, 87, 87, 1)"></path>
            <path d="M1414.5 126.5L1391.5 103.5M1460.5 126.5L1437.5 126.5L1414.5 126.5L1391.5 126.5"
                stroke="rgba(59, 59, 59, 1)" stroke-width="2"></path>
            <path
                d="M1385.75 126.5 a5.75 5.75 0 1 0 11.5 0 a5.75 5.75 0 1 0 -11.5 0zM1385.75 103.5 a5.75 5.75 0 1 0 11.5 0 a5.75 5.75 0 1 0 -11.5 0z"
                fill="rgba(59, 59, 59, 1)"></path>
            <path
                d="M1414.5 287.5L1391.5 310.5L1368.5 310.5L1345.5 310.5L1322.5 310.5M1437.5 287.5L1414.5 310.5L1391.5 333.5L1368.5 333.5M1460.5 287.5L1437.5 287.5L1414.5 287.5L1391.5 287.5L1368.5 287.5L1345.5 287.5"
                stroke="rgba(87, 87, 87, 1)" stroke-width="2"></path>
            <path
                d="M1339.75 287.5 a5.75 5.75 0 1 0 11.5 0 a5.75 5.75 0 1 0 -11.5 0zM1316.75 310.5 a5.75 5.75 0 1 0 11.5 0 a5.75 5.75 0 1 0 -11.5 0zM1362.75 333.5 a5.75 5.75 0 1 0 11.5 0 a5.75 5.75 0 1 0 -11.5 0z"
                fill="rgba(87, 87, 87, 1)"></path>
            <path
                d="M1368.5 80.5L1345.5 80.5M1230.5 57.5L1207.5 80.5L1184.5 103.5L1161.5 103.5M1299.5 57.5L1276.5 80.5L1253.5 80.5M1460.5 103.5L1437.5 80.5L1414.5 80.5L1391.5 80.5L1368.5 80.5L1345.5 57.5L1322.5 57.5L1299.5 57.5L1276.5 57.5L1253.5 57.5L1230.5 57.5L1207.5 57.5"
                stroke="rgba(59, 59, 59, 1)" stroke-width="2"></path>
            <path
                d="M1201.75 57.5 a5.75 5.75 0 1 0 11.5 0 a5.75 5.75 0 1 0 -11.5 0zM1339.75 80.5 a5.75 5.75 0 1 0 11.5 0 a5.75 5.75 0 1 0 -11.5 0zM1155.75 103.5 a5.75 5.75 0 1 0 11.5 0 a5.75 5.75 0 1 0 -11.5 0zM1247.75 80.5 a5.75 5.75 0 1 0 11.5 0 a5.75 5.75 0 1 0 -11.5 0z"
                fill="rgba(59, 59, 59, 1)"></path>
        </g>
    </g>
    <defs>
        <mask id="SvgjsMask1178">
            <rect width="1440" height="400" fill="#ffffff"></rect>
        </mask>
        <mask id="SvgjsMask1179">
            <rect width="1440" height="400" fill="white"></rect>
            <path d="M1388.62 195.5 a2.88 2.88 0 1 0 5.76 0 a2.88 2.88 0 1 0 -5.76 0z" fill="black"></path>
            <path
                d="M1089.62 218.5 a2.88 2.88 0 1 0 5.76 0 a2.88 2.88 0 1 0 -5.76 0zM1250.62 241.5 a2.88 2.88 0 1 0 5.76 0 a2.88 2.88 0 1 0 -5.76 0zM1273.62 241.5 a2.88 2.88 0 1 0 5.76 0 a2.88 2.88 0 1 0 -5.76 0zM1296.62 241.5 a2.88 2.88 0 1 0 5.76 0 a2.88 2.88 0 1 0 -5.76 0zM1342.62 195.5 a2.88 2.88 0 1 0 5.76 0 a2.88 2.88 0 1 0 -5.76 0z"
                fill="black"></path>
            <path
                d="M882.62 149.5 a2.88 2.88 0 1 0 5.76 0 a2.88 2.88 0 1 0 -5.76 0zM1089.62 172.5 a2.88 2.88 0 1 0 5.76 0 a2.88 2.88 0 1 0 -5.76 0zM836.62 126.5 a2.88 2.88 0 1 0 5.76 0 a2.88 2.88 0 1 0 -5.76 0zM1112.62 149.5 a2.88 2.88 0 1 0 5.76 0 a2.88 2.88 0 1 0 -5.76 0zM1181.62 172.5 a2.88 2.88 0 1 0 5.76 0 a2.88 2.88 0 1 0 -5.76 0zM1227.62 172.5 a2.88 2.88 0 1 0 5.76 0 a2.88 2.88 0 1 0 -5.76 0zM1296.62 172.5 a2.88 2.88 0 1 0 5.76 0 a2.88 2.88 0 1 0 -5.76 0z"
                fill="black"></path>
            <path
                d="M790.62 195.5 a2.88 2.88 0 1 0 5.76 0 a2.88 2.88 0 1 0 -5.76 0zM767.62 218.5 a2.88 2.88 0 1 0 5.76 0 a2.88 2.88 0 1 0 -5.76 0zM997.62 241.5 a2.88 2.88 0 1 0 5.76 0 a2.88 2.88 0 1 0 -5.76 0zM1319.62 241.5 a2.88 2.88 0 1 0 5.76 0 a2.88 2.88 0 1 0 -5.76 0zM813.62 172.5 a2.88 2.88 0 1 0 5.76 0 a2.88 2.88 0 1 0 -5.76 0zM1020.62 241.5 a2.88 2.88 0 1 0 5.76 0 a2.88 2.88 0 1 0 -5.76 0zM1181.62 264.5 a2.88 2.88 0 1 0 5.76 0 a2.88 2.88 0 1 0 -5.76 0zM1043.62 218.5 a2.88 2.88 0 1 0 5.76 0 a2.88 2.88 0 1 0 -5.76 0z"
                fill="black"></path>
            <path
                d="M1273.62 126.5 a2.88 2.88 0 1 0 5.76 0 a2.88 2.88 0 1 0 -5.76 0zM1296.62 103.5 a2.88 2.88 0 1 0 5.76 0 a2.88 2.88 0 1 0 -5.76 0zM1250.62 149.5 a2.88 2.88 0 1 0 5.76 0 a2.88 2.88 0 1 0 -5.76 0z"
                fill="black"></path>
            <path
                d="M905.62 241.5 a2.88 2.88 0 1 0 5.76 0 a2.88 2.88 0 1 0 -5.76 0zM1204.62 264.5 a2.88 2.88 0 1 0 5.76 0 a2.88 2.88 0 1 0 -5.76 0zM1250.62 310.5 a2.88 2.88 0 1 0 5.76 0 a2.88 2.88 0 1 0 -5.76 0zM1043.62 310.5 a2.88 2.88 0 1 0 5.76 0 a2.88 2.88 0 1 0 -5.76 0zM1250.62 333.5 a2.88 2.88 0 1 0 5.76 0 a2.88 2.88 0 1 0 -5.76 0zM882.62 264.5 a2.88 2.88 0 1 0 5.76 0 a2.88 2.88 0 1 0 -5.76 0zM928.62 264.5 a2.88 2.88 0 1 0 5.76 0 a2.88 2.88 0 1 0 -5.76 0z"
                fill="black"></path>
            <path
                d="M1388.62 126.5 a2.88 2.88 0 1 0 5.76 0 a2.88 2.88 0 1 0 -5.76 0zM1388.62 103.5 a2.88 2.88 0 1 0 5.76 0 a2.88 2.88 0 1 0 -5.76 0z"
                fill="black"></path>
            <path
                d="M1342.62 287.5 a2.88 2.88 0 1 0 5.76 0 a2.88 2.88 0 1 0 -5.76 0zM1319.62 310.5 a2.88 2.88 0 1 0 5.76 0 a2.88 2.88 0 1 0 -5.76 0zM1365.62 333.5 a2.88 2.88 0 1 0 5.76 0 a2.88 2.88 0 1 0 -5.76 0z"
                fill="black"></path>
            <path
                d="M1204.62 57.5 a2.88 2.88 0 1 0 5.76 0 a2.88 2.88 0 1 0 -5.76 0zM1342.62 80.5 a2.88 2.88 0 1 0 5.76 0 a2.88 2.88 0 1 0 -5.76 0zM1158.62 103.5 a2.88 2.88 0 1 0 5.76 0 a2.88 2.88 0 1 0 -5.76 0zM1250.62 80.5 a2.88 2.88 0 1 0 5.76 0 a2.88 2.88 0 1 0 -5.76 0z"
                fill="black"></path>
        </mask>
    </defs>
</svg>