<svg xmlns="http://www.w3.org/2000/svg" version="1.1" xmlns:xlink="http://www.w3.org/1999/xlink" xmlns:svgjs="http://svgjs.dev/svgjs" width="1440" height="560" preserveAspectRatio="none" viewBox="0 0 1440 560"><g mask="url(&quot;#SvgjsMask1002&quot;)" fill="none"><path d="M736.91 608.16C831.55 573.82 792.38 292.72 985.06 291 1177.73 289.28 1353.84 407.8 1481.35 408.6" stroke="rgba(69, 69, 69, 1)" stroke-width="2"></path><path d="M334.36 613.73C507.46 605.54 624.85 314.24 956 307.04 1287.14 299.84 1417.69 156.92 1577.63 155.84" stroke="rgba(69, 69, 69, 1)" stroke-width="2"></path><path d="M616.18 575.52C765.49 569.66 867 334.09 1159.38 326.15 1451.77 318.21 1559.17 143.86 1702.59 141.35" stroke="rgba(69, 69, 69, 1)" stroke-width="2"></path><path d="M698.92 656.26C843.07 647.8 950.17 383.49 1207.77 382.99 1465.37 382.49 1586.36 494.33 1716.62 494.99" stroke="rgba(69, 69, 69, 1)" stroke-width="2"></path><path d="M323.2 639.83C509.98 631.05 655.79 310.06 994.32 309.67 1332.85 309.28 1493.46 459.94 1665.44 460.87" stroke="rgba(69, 69, 69, 1)" stroke-width="2"></path></g><defs><mask id="SvgjsMask1002"><rect width="1440" height="560" fill="#ffffff"></rect></mask></defs></svg>